<svg width="39" height="36" viewBox="0 0 39 36" fill="none" xmlns="http://www.w3.org/2000/svg">
<g clip-path="url(#clip0_1_247)">
<path d="M10.4 22.8H30.3574C30.5155 22.8004 30.6731 22.7948 30.8303 22.7831C30.9875 22.7711 31.1439 22.7535 31.2995 22.7295C31.4551 22.7055 31.6095 22.6755 31.7627 22.6395C31.9154 22.6035 32.0665 22.5615 32.2152 22.5139C32.3643 22.4659 32.511 22.4123 32.6552 22.353C32.7994 22.2938 32.9408 22.2293 33.0789 22.1591C33.217 22.0886 33.3519 22.0133 33.4831 21.9326C33.6148 21.8516 33.7419 21.7661 33.8654 21.6754C33.9889 21.5846 34.1079 21.4894 34.2229 21.3893C34.3375 21.2891 34.4476 21.1849 34.5528 21.0765C34.658 20.9678 34.7579 20.8553 34.853 20.739C34.9481 20.6228 35.0374 20.5028 35.1211 20.3794C35.2052 20.256 35.2832 20.1296 35.3559 20.0003C35.4283 19.8709 35.4945 19.7389 35.555 19.6043C35.6151 19.4696 35.6692 19.3331 35.7171 19.194C35.7646 19.0553 35.8061 18.915 35.841 18.7729L38.9675 6.27C38.9785 6.22613 38.9866 6.18188 38.9923 6.13725C38.998 6.09263 39.0008 6.04763 39.0008 6.00263C39.0008 5.95763 38.9984 5.91263 38.9931 5.868C38.9874 5.82338 38.9797 5.77875 38.9687 5.73488C38.9582 5.691 38.9448 5.64788 38.9285 5.6055C38.9127 5.56275 38.894 5.5215 38.8728 5.48063C38.8517 5.44013 38.8282 5.40075 38.8026 5.36288C38.7766 5.32463 38.7485 5.28788 38.7181 5.25263C38.6876 5.21738 38.6551 5.184 38.6206 5.15213C38.5864 5.12025 38.5499 5.09025 38.5121 5.06213C38.4739 5.034 38.4341 5.00813 38.3927 4.98413C38.3516 4.96013 38.309 4.93838 38.2651 4.91888C38.2212 4.89938 38.1761 4.88213 38.1302 4.8675C38.0843 4.8525 38.0372 4.84013 37.9897 4.83C37.9421 4.81988 37.8942 4.81238 37.8458 4.8075C37.7975 4.80263 37.7488 4.8 37.7 4.8H7.45306L6.46628 0.925125C6.44963 0.859875 6.42728 0.796125 6.39884 0.73425C6.37041 0.672375 6.33709 0.613125 6.29809 0.5565C6.25909 0.4995 6.21481 0.44625 6.16647 0.396375C6.11772 0.3465 6.0645 0.30075 6.00763 0.259125C5.95075 0.2175 5.89022 0.180375 5.82644 0.148125C5.76266 0.115875 5.69644 0.0885 5.62738 0.066375C5.55872 0.044625 5.48844 0.02775 5.41694 0.016875C5.34503 0.005625 5.27272 0 5.2 0H1.3C1.21469 0 1.13019 0.0075 1.0465 0.022875C0.962813 0.0382501 0.881563 0.061125 0.802344 0.0915C0.723531 0.1215 0.648781 0.158625 0.577688 0.202125C0.506594 0.246 0.441188 0.295875 0.380656 0.351375C0.320531 0.40725 0.2665 0.467625 0.218969 0.53325C0.171844 0.598875 0.131625 0.667875 0.099125 0.740625C0.0662188 0.81375 0.0414376 0.88875 0.0247812 0.966C0.008125 1.04325 0 1.12125 0 1.2C0 1.27875 0.008125 1.35675 0.0247812 1.434C0.0414376 1.51125 0.0662188 1.58625 0.099125 1.65938C0.131625 1.73213 0.171844 1.80113 0.218969 1.86675C0.2665 1.93238 0.320531 1.99275 0.380656 2.04863C0.441188 2.10413 0.506594 2.154 0.577688 2.19788C0.648781 2.24138 0.723531 2.2785 0.802344 2.3085C0.881563 2.33888 0.962813 2.36175 1.0465 2.37713C1.13019 2.3925 1.21469 2.4 1.3 2.4H4.17056L8.84 20.7071C8.73884 20.7484 8.63972 20.7938 8.54263 20.8429C8.44553 20.8916 8.35128 20.9445 8.25906 21.0011C8.16684 21.0574 8.07747 21.1174 7.99094 21.1811C7.904 21.2445 7.82072 21.3113 7.74028 21.3814C7.65984 21.4515 7.58266 21.5246 7.50872 21.6008C7.43519 21.6769 7.36491 21.7556 7.29869 21.8374C7.23206 21.9188 7.1695 22.0031 7.111 22.0894C7.05209 22.176 6.99766 22.2649 6.94688 22.3556C6.8965 22.4464 6.85019 22.539 6.80834 22.6335C6.76609 22.728 6.72872 22.824 6.69541 22.9215C6.6625 23.019 6.63366 23.1173 6.60969 23.217C6.58572 23.3168 6.56622 23.4173 6.55159 23.5185C6.53656 23.6194 6.52641 23.721 6.52113 23.823C6.51544 23.925 6.51503 24.027 6.51869 24.129C6.52275 24.231 6.53128 24.333 6.54469 24.4343C6.55809 24.5355 6.57597 24.6364 6.59872 24.7361C6.62147 24.8363 6.64869 24.9353 6.68038 25.0328C6.71206 25.1306 6.74822 25.227 6.78884 25.3223C6.82947 25.4171 6.87456 25.5101 6.92372 25.6016C6.97288 25.6931 7.02609 25.7824 7.08378 25.8698C7.14106 25.9571 7.20241 26.0419 7.26781 26.1244C7.33281 26.2069 7.40188 26.2864 7.47459 26.3636C7.54731 26.4405 7.62328 26.5148 7.7025 26.5856C7.78213 26.6565 7.86459 26.7244 7.95031 26.7889C8.03603 26.8538 8.12459 26.9149 8.216 26.9723C8.30741 27.03 8.40125 27.084 8.49753 27.1343C8.59381 27.1845 8.69213 27.2306 8.79288 27.2734C8.89322 27.3158 8.99559 27.3544 9.09959 27.3885C9.204 27.423 9.30922 27.4534 9.41647 27.4796C9.52331 27.5059 9.63138 27.5276 9.74025 27.5456C9.84913 27.5633 9.95881 27.5768 10.0689 27.5858C10.179 27.5948 10.2895 27.5996 10.4 27.6H35.1C35.1853 27.6 35.2698 27.5921 35.3535 27.5768C35.4372 27.5618 35.5184 27.5389 35.5977 27.5085C35.6765 27.4785 35.7512 27.4414 35.8223 27.3979C35.8934 27.354 35.9588 27.3041 36.0193 27.2486C36.0795 27.1928 36.1335 27.1324 36.181 27.0668C36.2282 27.0011 36.2684 26.9321 36.3009 26.8594C36.3338 26.7863 36.3586 26.7113 36.3748 26.634C36.3915 26.5568 36.4 26.4788 36.4 26.4C36.4 26.3213 36.3915 26.2433 36.3748 26.166C36.3586 26.0888 36.3338 26.0138 36.3009 25.9406C36.2684 25.8679 36.2282 25.7989 36.181 25.7333C36.1335 25.6676 36.0795 25.6073 36.0193 25.5514C35.9588 25.4959 35.8934 25.446 35.8223 25.4021C35.7512 25.3586 35.6765 25.3215 35.5977 25.2915C35.5184 25.2611 35.4372 25.2383 35.3535 25.2229C35.2698 25.2075 35.1853 25.2 35.1 25.2H10.4C10.3147 25.2 10.2302 25.1921 10.1465 25.1771C10.0628 25.1618 9.98156 25.1389 9.90234 25.1085C9.82353 25.0785 9.74878 25.0414 9.67769 24.9979C9.6066 24.954 9.54119 24.9041 9.48066 24.8486C9.42053 24.7928 9.3665 24.7324 9.31897 24.6668C9.27184 24.6011 9.23163 24.5321 9.19913 24.4594C9.16622 24.3863 9.14144 24.3113 9.12478 24.234C9.10813 24.1568 9.1 24.0788 9.1 24C9.1 23.9213 9.10813 23.8433 9.12478 23.766C9.14144 23.6888 9.16622 23.6138 9.19913 23.5406C9.23163 23.4679 9.27184 23.3989 9.31897 23.3333C9.3665 23.2676 9.42053 23.2073 9.48066 23.1514C9.54119 23.0959 9.6066 23.046 9.67769 23.0021C9.74878 22.9586 9.82353 22.9215 9.90234 22.8915C9.98156 22.8611 10.0628 22.8383 10.1465 22.8229C10.2302 22.8075 10.3147 22.8 10.4 22.8ZM36.0661 7.2L33.3072 18.2329C33.2698 18.3859 33.2187 18.5351 33.1537 18.6803C33.0887 18.8254 33.0111 18.9645 32.9205 19.0976C32.8303 19.2308 32.7283 19.3556 32.615 19.4726C32.5016 19.5896 32.3781 19.6973 32.2453 19.7951C32.112 19.893 31.9711 19.9796 31.822 20.0554C31.6729 20.1311 31.5181 20.1949 31.3572 20.2463C31.1968 20.2976 31.0322 20.3363 30.8644 20.3621C30.6967 20.388 30.5277 20.4008 30.3574 20.4H11.4294L8.06 7.2H36.0661Z" fill="white"/>
<path d="M13 28.8C12.8724 28.8 12.7449 28.8056 12.6177 28.8173C12.4905 28.8289 12.3642 28.8461 12.2391 28.869C12.1139 28.8923 11.99 28.9208 11.8678 28.9549C11.7455 28.9894 11.6256 29.0288 11.5074 29.0741C11.3896 29.1191 11.2742 29.1694 11.1617 29.2253C11.0488 29.2808 10.9395 29.3411 10.8334 29.4068C10.727 29.4724 10.6246 29.5425 10.5259 29.6171C10.4272 29.6921 10.3325 29.7709 10.2424 29.8545C10.1518 29.9378 10.0664 30.0251 9.98519 30.1163C9.90435 30.2074 9.82838 30.3019 9.75729 30.4001C9.68619 30.498 9.62079 30.5989 9.56066 30.7031C9.50013 30.807 9.44569 30.9135 9.39694 31.0223C9.34779 31.1314 9.30513 31.242 9.26776 31.3549C9.23079 31.4678 9.19991 31.5821 9.17473 31.6976C9.14994 31.8131 9.13126 31.9298 9.11866 32.0471C9.10607 32.1645 9.09998 32.2823 9.09998 32.4C9.09998 32.5178 9.10607 32.6355 9.11866 32.7529C9.13126 32.8703 9.14994 32.9865 9.17473 33.1024C9.19991 33.2179 9.23079 33.3323 9.26776 33.4451C9.30513 33.558 9.34779 33.6686 9.39694 33.7778C9.44569 33.8865 9.50013 33.993 9.56066 34.0969C9.62079 34.2011 9.68619 34.302 9.75729 34.3999C9.82838 34.4981 9.90435 34.5926 9.98519 34.6838C10.0664 34.7749 10.1518 34.8623 10.2424 34.9455C10.3325 35.0291 10.4272 35.1079 10.5259 35.1829C10.6246 35.2575 10.727 35.3276 10.8334 35.3933C10.9395 35.4589 11.0488 35.5193 11.1617 35.5748C11.2742 35.6306 11.3896 35.6809 11.5074 35.7259C11.6256 35.7713 11.7455 35.8106 11.8678 35.8451C11.99 35.8793 12.1139 35.9078 12.2391 35.931C12.3642 35.9539 12.4905 35.9711 12.6177 35.9828C12.7449 35.9944 12.8724 36 13 36C13.1275 36 13.2551 35.9944 13.3823 35.9828C13.5094 35.9711 13.6354 35.9539 13.7609 35.931C13.886 35.9078 14.0099 35.8793 14.1322 35.8451C14.2545 35.8106 14.3743 35.7713 14.4925 35.7259C14.6104 35.6809 14.7257 35.6306 14.8383 35.5748C14.9512 35.5193 15.0605 35.4589 15.1665 35.3933C15.2729 35.3276 15.3753 35.2575 15.474 35.1829C15.5728 35.1079 15.6674 35.0291 15.7576 34.9455C15.8482 34.8623 15.9335 34.7749 16.0148 34.6838C16.0956 34.5926 16.1716 34.4981 16.2427 34.3999C16.3138 34.302 16.3792 34.2011 16.4393 34.0969C16.4998 33.993 16.5543 33.8865 16.603 33.7778C16.6522 33.6686 16.6948 33.558 16.7322 33.4451C16.7692 33.3323 16.8 33.2179 16.8252 33.1024C16.85 32.9865 16.8687 32.8703 16.8813 32.7529C16.8939 32.6355 16.9 32.5178 16.9 32.4C16.9 32.2823 16.8939 32.1645 16.8813 32.0471C16.8687 31.9298 16.85 31.8131 16.8252 31.6976C16.8 31.5821 16.7692 31.4678 16.7322 31.3549C16.6948 31.242 16.6522 31.1314 16.603 31.0223C16.5543 30.9135 16.4998 30.807 16.4393 30.7031C16.3792 30.5989 16.3138 30.498 16.2427 30.4001C16.1716 30.3019 16.0956 30.2074 16.0148 30.1163C15.9335 30.0251 15.8482 29.9378 15.7576 29.8545C15.6674 29.7709 15.5728 29.6921 15.474 29.6171C15.3753 29.5425 15.2729 29.4724 15.1665 29.4068C15.0605 29.3411 14.9512 29.2808 14.8383 29.2253C14.7257 29.1694 14.6104 29.1191 14.4925 29.0741C14.3743 29.0288 14.2545 28.9894 14.1322 28.9549C14.0099 28.9208 13.886 28.8923 13.7609 28.869C13.6354 28.8461 13.5094 28.8289 13.3823 28.8173C13.2551 28.8056 13.1275 28.8 13 28.8ZM13 33.6C12.9147 33.6 12.8302 33.5921 12.7465 33.5768C12.6628 33.5618 12.5815 33.5389 12.5023 33.5085C12.4235 33.4785 12.3488 33.4414 12.2777 33.3979C12.2066 33.354 12.1412 33.3041 12.0806 33.2486C12.0205 33.1928 11.9665 33.1324 11.9189 33.0668C11.8718 33.0011 11.8316 32.9321 11.7991 32.8594C11.7662 32.7863 11.7414 32.7113 11.7248 32.634C11.7081 32.5568 11.7 32.4788 11.7 32.4C11.7 32.3213 11.7081 32.2433 11.7248 32.166C11.7414 32.0888 11.7662 32.0138 11.7991 31.9406C11.8316 31.8679 11.8718 31.7989 11.9189 31.7333C11.9665 31.6676 12.0205 31.6073 12.0806 31.5514C12.1412 31.4959 12.2066 31.446 12.2777 31.4021C12.3488 31.3586 12.4235 31.3215 12.5023 31.2915C12.5815 31.2611 12.6628 31.2383 12.7465 31.2229C12.8302 31.2075 12.9147 31.2 13 31.2C13.0853 31.2 13.1698 31.2075 13.2535 31.2229C13.3372 31.2383 13.4184 31.2611 13.4976 31.2915C13.5764 31.3215 13.6512 31.3586 13.7223 31.4021C13.7934 31.446 13.8588 31.4959 13.9193 31.5514C13.9794 31.6073 14.0335 31.6676 14.081 31.7333C14.1281 31.7989 14.1684 31.8679 14.2009 31.9406C14.2338 32.0138 14.2585 32.0888 14.2752 32.166C14.2914 32.2433 14.3 32.3213 14.3 32.4C14.3 32.4788 14.2914 32.5568 14.2752 32.634C14.2585 32.7113 14.2338 32.7863 14.2009 32.8594C14.1684 32.9321 14.1281 33.0011 14.081 33.0668C14.0335 33.1324 13.9794 33.1928 13.9193 33.2486C13.8588 33.3041 13.7934 33.354 13.7223 33.3979C13.6512 33.4414 13.5764 33.4785 13.4976 33.5085C13.4184 33.5389 13.3372 33.5618 13.2535 33.5768C13.1698 33.5921 13.0853 33.6 13 33.6Z" fill="white"/>
<path d="M28.6 28.8C28.4724 28.8 28.3449 28.8056 28.2177 28.8173C28.0906 28.8289 27.9642 28.8461 27.8391 28.869C27.714 28.8923 27.5901 28.9208 27.4678 28.9549C27.3455 28.9894 27.2257 29.0288 27.1074 29.0741C26.9896 29.1191 26.8743 29.1694 26.7617 29.2253C26.6488 29.2808 26.5395 29.3411 26.4335 29.4068C26.327 29.4724 26.2247 29.5425 26.1259 29.6171C26.0272 29.6921 25.9326 29.7709 25.8424 29.8545C25.7518 29.9378 25.6665 30.0251 25.5852 30.1163C25.5044 30.2074 25.4284 30.3019 25.3573 30.4001C25.2862 30.498 25.2208 30.5989 25.1607 30.7031C25.1002 30.807 25.0457 30.9135 24.997 31.0223C24.9478 31.1314 24.9052 31.242 24.8678 31.3549C24.8308 31.4678 24.7999 31.5821 24.7748 31.6976C24.75 31.8131 24.7313 31.9298 24.7187 32.0471C24.7061 32.1645 24.7 32.2823 24.7 32.4C24.7 32.5178 24.7061 32.6355 24.7187 32.7529C24.7313 32.8703 24.75 32.9865 24.7748 33.1024C24.7999 33.2179 24.8308 33.3323 24.8678 33.4451C24.9052 33.558 24.9478 33.6686 24.997 33.7778C25.0457 33.8865 25.1002 33.993 25.1607 34.0969C25.2208 34.2011 25.2862 34.302 25.3573 34.3999C25.4284 34.4981 25.5044 34.5926 25.5852 34.6838C25.6665 34.7749 25.7518 34.8623 25.8424 34.9455C25.9326 35.0291 26.0272 35.1079 26.1259 35.1829C26.2247 35.2575 26.327 35.3276 26.4335 35.3933C26.5395 35.4589 26.6488 35.5193 26.7617 35.5748C26.8743 35.6306 26.9896 35.6809 27.1074 35.7259C27.2257 35.7713 27.3455 35.8106 27.4678 35.8451C27.5901 35.8793 27.714 35.9078 27.8391 35.931C27.9642 35.9539 28.0906 35.9711 28.2177 35.9828C28.3449 35.9944 28.4724 36 28.6 36C28.7276 36 28.8551 35.9944 28.9823 35.9828C29.1094 35.9711 29.2354 35.9539 29.3609 35.931C29.486 35.9078 29.61 35.8793 29.7322 35.8451C29.8545 35.8106 29.9744 35.7713 30.0926 35.7259C30.2104 35.6809 30.3258 35.6306 30.4383 35.5748C30.5512 35.5193 30.6605 35.4589 30.7665 35.3933C30.873 35.3276 30.9754 35.2575 31.0741 35.1829C31.1728 35.1079 31.2674 35.0291 31.3576 34.9455C31.4482 34.8623 31.5335 34.7749 31.6148 34.6838C31.6956 34.5926 31.7716 34.4981 31.8427 34.3999C31.9138 34.302 31.9792 34.2011 32.0393 34.0969C32.0999 33.993 32.1543 33.8865 32.203 33.7778C32.2522 33.6686 32.2949 33.558 32.3322 33.4451C32.3692 33.3323 32.4001 33.2179 32.4253 33.1024C32.45 32.9865 32.4687 32.8703 32.4813 32.7529C32.4939 32.6355 32.5 32.5178 32.5 32.4C32.5 32.2823 32.4939 32.1645 32.4813 32.0471C32.4687 31.9298 32.45 31.8131 32.4253 31.6976C32.4001 31.5821 32.3692 31.4678 32.3322 31.3549C32.2949 31.242 32.2522 31.1314 32.203 31.0223C32.1543 30.9135 32.0999 30.807 32.0393 30.7031C31.9792 30.5989 31.9138 30.498 31.8427 30.4001C31.7716 30.3019 31.6956 30.2074 31.6148 30.1163C31.5335 30.0251 31.4482 29.9378 31.3576 29.8545C31.2674 29.7709 31.1728 29.6921 31.0741 29.6171C30.9754 29.5425 30.873 29.4724 30.7665 29.4068C30.6605 29.3411 30.5512 29.2808 30.4383 29.2253C30.3258 29.1694 30.2104 29.1191 30.0926 29.0741C29.9744 29.0288 29.8545 28.9894 29.7322 28.9549C29.61 28.9208 29.486 28.8923 29.3609 28.869C29.2354 28.8461 29.1094 28.8289 28.9823 28.8173C28.8551 28.8056 28.7276 28.8 28.6 28.8ZM28.6 33.6C28.5147 33.6 28.4302 33.5921 28.3465 33.5768C28.2628 33.5618 28.1816 33.5389 28.1024 33.5085C28.0235 33.4785 27.9488 33.4414 27.8777 33.3979C27.8066 33.354 27.7412 33.3041 27.6807 33.2486C27.6205 33.1928 27.5665 33.1324 27.519 33.0668C27.4719 33.0011 27.4316 32.9321 27.3991 32.8594C27.3662 32.7863 27.3414 32.7113 27.3248 32.634C27.3081 32.5568 27.3 32.4788 27.3 32.4C27.3 32.3213 27.3081 32.2433 27.3248 32.166C27.3414 32.0888 27.3662 32.0138 27.3991 31.9406C27.4316 31.8679 27.4719 31.7989 27.519 31.7333C27.5665 31.6676 27.6205 31.6073 27.6807 31.5514C27.7412 31.4959 27.8066 31.446 27.8777 31.4021C27.9488 31.3586 28.0235 31.3215 28.1024 31.2915C28.1816 31.2611 28.2628 31.2383 28.3465 31.2229C28.4302 31.2075 28.5147 31.2 28.6 31.2C28.6853 31.2 28.7698 31.2075 28.8535 31.2229C28.9372 31.2383 29.0184 31.2611 29.0977 31.2915C29.1765 31.3215 29.2512 31.3586 29.3223 31.4021C29.3934 31.446 29.4588 31.4959 29.5194 31.5514C29.5795 31.6073 29.6335 31.6676 29.681 31.7333C29.7282 31.7989 29.7684 31.8679 29.8009 31.9406C29.8338 32.0138 29.8586 32.0888 29.8752 32.166C29.8915 32.2433 29.9 32.3213 29.9 32.4C29.9 32.4788 29.8915 32.5568 29.8748 32.634C29.8586 32.7113 29.8338 32.7863 29.8009 32.8594C29.7684 32.9321 29.7282 33.0011 29.681 33.0668C29.6335 33.1324 29.5795 33.1928 29.5194 33.2486C29.4588 33.3041 29.3934 33.354 29.3223 33.3979C29.2512 33.4414 29.1765 33.4785 29.0977 33.5085C29.0184 33.5389 28.9372 33.5618 28.8535 33.5768C28.7698 33.5921 28.6853 33.6 28.6 33.6Z" fill="white"/>
</g>
<defs>
<clipPath id="clip0_1_247">
<rect width="39" height="36" fill="white"/>
</clipPath>
</defs>
</svg>
