<svg width="39" height="37" viewBox="0 0 39 37" fill="none" xmlns="http://www.w3.org/2000/svg">
<g clip-path="url(#clip0_1_245)">
<path d="M8.88916 10.1364C8.88916 9.97072 8.89363 9.80537 8.90256 9.64003C8.91109 9.47468 8.92409 9.30934 8.94156 9.14477C8.95863 8.9802 8.98016 8.81562 9.00575 8.65221C9.03175 8.4884 9.06181 8.32537 9.09594 8.16273C9.13006 8.00047 9.16825 7.83898 9.21091 7.67864C9.25356 7.51792 9.29988 7.35836 9.35066 7.19996C9.40144 7.04155 9.45628 6.8843 9.51519 6.72859C9.57409 6.57288 9.63706 6.41833 9.70369 6.26532C9.77072 6.11231 9.84141 5.96123 9.91616 5.81168C9.99091 5.66176 10.0693 5.51414 10.1518 5.36807C10.2338 5.222 10.32 5.07824 10.4098 4.93602C10.4995 4.79418 10.593 4.65428 10.6901 4.51669C10.7868 4.37909 10.8875 4.24381 10.9915 4.11084C11.0951 3.97787 11.2028 3.84722 11.3133 3.71926C11.4242 3.5913 11.5379 3.46604 11.6553 3.34348C11.7723 3.22091 11.8926 3.10105 12.0161 2.98388C12.1396 2.86672 12.2659 2.75263 12.3951 2.64125C12.5243 2.53025 12.6563 2.42195 12.7912 2.31711C12.9261 2.21189 13.0638 2.11014 13.2039 2.01148C13.3441 1.91281 13.4867 1.81723 13.6317 1.7255C13.7768 1.63338 13.9242 1.54474 14.0737 1.45956C14.2232 1.37438 14.3752 1.29267 14.5291 1.21443C14.6827 1.13658 14.8387 1.0622 14.9963 0.991279C15.1539 0.920362 15.3136 0.853299 15.4749 0.789706C15.6358 0.726112 15.7987 0.666372 15.9628 0.610487C16.1273 0.554601 16.2927 0.50257 16.4596 0.454393C16.6266 0.406216 16.7948 0.362279 16.9642 0.32181C17.1332 0.281341 17.3034 0.245112 17.4744 0.212351C17.6459 0.179976 17.8177 0.151456 17.9904 0.127174C18.1626 0.102893 18.3361 0.0824661 18.5096 0.0658931C18.6834 0.0493202 18.8573 0.0369869 19.0316 0.0288931C19.2059 0.0204139 19.3802 0.0161743 19.5548 0.0161743C33.6521 0.489081 33.6797 19.741 19.591 20.2548C19.4159 20.2552 19.2412 20.2517 19.0665 20.2436C18.8918 20.2359 18.7176 20.2243 18.5433 20.2082C18.3694 20.1924 18.1955 20.1727 18.0229 20.1484C17.8498 20.1245 17.6772 20.0968 17.5057 20.0648C17.3343 20.0324 17.1637 19.9966 16.9938 19.9565C16.824 19.9168 16.6554 19.8728 16.4881 19.8251C16.3207 19.7773 16.1545 19.7256 15.9896 19.6697C15.8247 19.6142 15.6618 19.5549 15.5001 19.4917C15.3384 19.4285 15.1783 19.3618 15.0199 19.2909C14.8618 19.2203 14.7054 19.1459 14.5511 19.0681C14.3967 18.9902 14.2443 18.9089 14.094 18.8237C13.9441 18.7389 13.7963 18.6503 13.6504 18.5582C13.505 18.4665 13.362 18.3713 13.221 18.2726C13.0804 18.1739 12.9427 18.0722 12.807 17.9673C12.6718 17.8621 12.5393 17.7542 12.4093 17.6428C12.2797 17.5318 12.153 17.4174 12.0291 17.3002C11.9052 17.1834 11.7841 17.0632 11.6667 16.9406C11.5489 16.8176 11.4347 16.6924 11.3234 16.5644C11.2121 16.4361 11.1044 16.3058 11 16.1725C10.8956 16.0395 10.7949 15.9038 10.6974 15.7662C10.5999 15.6282 10.5064 15.4883 10.4163 15.3461C10.3261 15.2039 10.2395 15.0598 10.1571 14.9137C10.0742 14.7672 9.99538 14.6192 9.92063 14.4693C9.84547 14.3198 9.77438 14.1679 9.70734 14.0149C9.64031 13.8615 9.57694 13.7069 9.51803 13.5509C9.45872 13.3948 9.40388 13.2371 9.35269 13.0787C9.30191 12.9199 9.25478 12.76 9.21213 12.5993C9.16947 12.4382 9.13088 12.2767 9.09675 12.114C9.06222 11.951 9.03216 11.788 9.00656 11.6238C8.98056 11.4596 8.95903 11.295 8.94156 11.13C8.92409 10.9647 8.91109 10.7994 8.90256 10.6336C8.89363 10.4679 8.88916 10.3022 8.88916 10.1364ZM30.3501 20.2594C30.2794 20.2186 30.2059 20.1823 30.1299 20.1511C30.0536 20.1203 29.9756 20.0945 29.8955 20.074C29.8155 20.0536 29.7342 20.0386 29.6522 20.0293C29.5697 20.0201 29.4872 20.0162 29.4044 20.0181C29.3215 20.0201 29.2394 20.0278 29.1578 20.0409C29.0757 20.054 28.9957 20.0729 28.9169 20.0972C28.8377 20.121 28.7613 20.1503 28.6869 20.185C28.6122 20.2197 28.5411 20.259 28.4724 20.3034C28.3136 20.4259 28.1523 20.545 27.9882 20.6606C27.8241 20.7763 27.6571 20.8888 27.4881 20.9975C27.3187 21.1066 27.1468 21.2118 26.973 21.3139C26.7987 21.4157 26.6228 21.5139 26.444 21.6088C26.2657 21.7032 26.0849 21.7941 25.9025 21.8816C25.7197 21.9687 25.5352 22.0524 25.3488 22.1322C25.1623 22.2119 24.9742 22.2879 24.7841 22.3599C24.5944 22.432 24.4026 22.5002 24.2097 22.5646C24.0167 22.6286 23.8225 22.6891 23.6267 22.7454C23.4309 22.8016 23.2343 22.854 23.036 22.9022C22.8378 22.9504 22.6387 22.9947 22.4388 23.0348C22.2385 23.0749 22.0378 23.1111 21.8359 23.1427C21.634 23.1747 21.4317 23.2025 21.229 23.2264C21.0259 23.2499 20.8223 23.2695 20.6184 23.2845C20.4145 23.3 20.2105 23.3111 20.0062 23.3181C19.8018 23.325 19.5971 23.3281 19.3928 23.3266C19.188 23.3254 18.9837 23.3196 18.7793 23.31C18.5754 23.3004 18.3714 23.2865 18.1675 23.2684C17.964 23.2502 17.7608 23.2283 17.5581 23.2017C17.3554 23.1755 17.1535 23.145 16.9524 23.1103C16.7513 23.0757 16.5506 23.0371 16.3512 22.9943C16.1517 22.9515 15.9534 22.9045 15.756 22.8537C15.5586 22.8028 15.3623 22.748 15.1678 22.6891C14.9728 22.6301 14.7794 22.5673 14.5872 22.5002C14.3955 22.4335 14.2049 22.363 14.016 22.2882C13.8271 22.2135 13.6403 22.1352 13.455 22.0531C13.2698 21.9707 13.0865 21.8847 12.9049 21.7949C12.7238 21.7051 12.5446 21.6118 12.3675 21.5147C12.1903 21.418 12.0157 21.317 11.843 21.2129C11.6703 21.1089 11.5005 21.001 11.3328 20.89C11.165 20.779 11 20.6641 10.8375 20.5465C10.675 20.4286 10.5154 20.3072 10.3586 20.1827C10.2399 20.1311 10.1168 20.0937 9.98888 20.0706C9.86091 20.0474 9.73172 20.039 9.60131 20.0455C9.47131 20.0517 9.34375 20.0729 9.21903 20.1087C9.09431 20.1446 8.97609 20.1943 8.86397 20.2575C8.53613 20.4641 8.21519 20.6803 7.90156 20.9061C7.58794 21.1316 7.28163 21.3663 6.98303 21.6095C6.68484 21.8531 6.39438 22.1052 6.11203 22.3657C5.83009 22.6259 5.55669 22.8945 5.29181 23.1709C5.02734 23.4476 4.77181 23.7312 4.52563 24.0226C4.27903 24.314 4.04259 24.6123 3.8155 24.9176C3.58881 25.2228 3.37188 25.5342 3.1655 25.8522C2.95872 26.1702 2.7625 26.4935 2.57684 26.8231C2.39119 27.1526 2.2165 27.4867 2.05238 27.8263C1.88866 28.1659 1.73591 28.51 1.59413 28.8584C1.45275 29.2069 1.32234 29.5595 1.20372 29.9153C1.08509 30.2714 0.978251 30.6306 0.882782 30.9933C0.787314 31.3556 0.703626 31.7202 0.632126 32.0875C0.560626 32.4548 0.500907 32.8236 0.45297 33.1944C0.405439 33.5652 0.369689 33.9371 0.346126 34.3098C0.322564 34.6825 0.311189 35.0559 0.311595 35.4294C0.311595 35.5312 0.322157 35.6325 0.342876 35.7327C0.364001 35.8326 0.394876 35.9301 0.436314 36.0245C0.477345 36.1185 0.52772 36.2083 0.587439 36.2931C0.647564 36.3779 0.715407 36.4566 0.791376 36.5286C0.867345 36.6011 0.95022 36.6654 1.03959 36.7221C1.12938 36.7788 1.22363 36.8265 1.32316 36.8659C1.42269 36.9048 1.52506 36.9345 1.63069 36.9541C1.73631 36.9742 1.84275 36.9838 1.95041 36.9838H37.2133C37.321 36.9838 37.4278 36.9742 37.533 36.9541C37.6387 36.9345 37.7414 36.9048 37.8406 36.8659C37.9401 36.8265 38.0347 36.7788 38.1241 36.7221C38.2135 36.6654 38.2964 36.6011 38.3723 36.5286C38.4487 36.4566 38.5166 36.3779 38.5763 36.2931C38.636 36.2083 38.6864 36.1185 38.7278 36.0245C38.7688 35.9301 38.7997 35.8326 38.8208 35.7327C38.8416 35.6325 38.8521 35.5312 38.8521 35.4294C38.8517 35.0567 38.8395 34.6844 38.8152 34.3125C38.7912 33.9405 38.755 33.5694 38.7067 33.1998C38.6587 32.8298 38.599 32.4617 38.5271 32.0952C38.4552 31.729 38.3719 31.3648 38.2769 31.0033C38.1814 30.6418 38.075 30.2833 37.9567 29.928C37.8385 29.5726 37.7089 29.2207 37.568 28.8731C37.427 28.5251 37.2755 28.1817 37.1126 27.8425C36.9492 27.5033 36.7758 27.1695 36.5913 26.8404C36.4069 26.5113 36.2123 26.1879 36.0067 25.8703C35.8016 25.5523 35.5863 25.2409 35.3612 24.9357C35.1362 24.6304 34.9009 24.3317 34.6568 24.04C34.4122 23.7482 34.1587 23.4642 33.8959 23.187C33.633 22.9099 33.3617 22.6409 33.0817 22.3796C32.8018 22.1183 32.5134 21.8651 32.2172 21.6207C31.9207 21.376 31.6168 21.1401 31.3056 20.9131C30.994 20.6861 30.6755 20.4683 30.3501 20.2594Z" fill="white"/>
</g>
<defs>
<clipPath id="clip0_1_245">
<rect width="39" height="37" fill="white"/>
</clipPath>
</defs>
</svg>
